<svg xmlns="http://www.w3.org/2000/svg" style="display: none;">
    <!-- Facebook Icon -->
    <symbol id="icon-facebook" viewBox="0 0 32 32">
        <path d="M14.023 24L14 17h-3v-3h3v-2c0-2.7 1.672-4 4.08-4 1.153 0 2.144.086 2.433.124v2.821h-1.67c-1.31 0-1.563.623-1.563 1.536V14H21l-1 3h-2.72v7h-3.257z" />
    </symbol>
    
    <!-- Instagram Icon -->
    <symbol id="icon-instagram" viewBox="0 0 32 32">
        <path d="M16 11c-2.8 0-5 2.2-5 5s2.2 5 5 5 5-2.2 5-5-2.2-5-5-5zm0 8.3c-1.8 0-3.3-1.5-3.3-3.3S14.2 12.7 16 12.7s3.3 1.5 3.3 3.3-1.5 3.3-3.3 3.3zm4.6-8.8c-.5 0-.9-.4-.9-.9s.4-.9.9-.9.9.4.9.9-.4.9-.9.9zM24 13c-.1-1.3-.3-2.2-1.1-3-.7-.7-1.7-1-3-1s-3.3-.1-4.9-.1c-1.7 0-3.3 0-4.9.1-1.3 0-2.3.3-3 1-1 1-1 1.7-1 3-.1 1.5-.1 3.1-.1 4.8 0 1.7 0 3.3.1 4.9.1 1.3.3 2.2 1.1 3 .7.7 1.7 1 3 1 1.5.1 3.1.1 4.8.1s3.3 0 4.9-.1c1.3 0 2.3-.3 3-1 .7-.7 1-1.7 1-3 .1-1.5.1-3.1.1-4.8s0-3.3-.1-4.9zm-2.1 9c-.4 1-1.3 1.7-2.3 2-.7.2-2.5.2-3.6.2s-2.7 0-3.6-.1c-1 0-1.9-.2-2.6-.7-.8-.4-1.3-1-1.7-1.7-.4-.8-.6-1.6-.7-2.6-.1-.9-.1-2.5-.1-3.6s0-2.7.1-3.6c.1-1 .2-1.9.7-2.6.4-.8 1-1.3 1.7-1.7.8-.4 1.6-.6 2.6-.7.9 0 2.5-.1 3.6-.1s2.7 0 3.6.1c1 0 1.9.2 2.6.7.8.4 1.3 1 1.7 1.7.4.8.6 1.6.7 2.6.1.9.1 2.5.1 3.6s0 2.7-.1 3.6c-.1 1-.2 1.9-.7 2.6z" />
    </symbol>

    <!-- LinkedIn Icon -->
    <symbol id="icon-linkedin" viewBox="0 0 32 32">
        <path d="M12 12h5.5v1.5h.1c.7-1.1 2-2.1 4.1-2.1 4.3 0 5.2 2.8 5.2 6.4V24H21v-5.6c0-1.3 0-3-1.8-3-1.8 0-2.1 1.4-2.1 2.9V24h-5.5v-12zm-6 0h5.5v12H6v-12zm5.7-4.8c0 1-.8 1.8-1.8 1.8s-1.8-.8-1.8-1.8c0-1 .8-1.8 1.8-1.8s1.8.8 1.8 1.8zM29 0H3C1.3 0 0 1.3 0 3v26c0 1.7 1.3 3 3 3h26c1.7 0 3-1.3 3-3V3c0-1.7-1.3-3-3-3z" />
    </symbol>

    <!-- Twitter Icon -->
    <symbol id="icon-twitter" viewBox="0 0 32 32">
        <path d="M24 11.5c-.6.3-1.2.4-1.9.5.7-.4 1.2-1 1.4-1.8-.6.4-1.3.6-2.1.8-.6-.6-1.5-1-2.4-1-1.7 0-3.2 1.5-3.2 3.3 0 .3 0 .5.1.7-2.7-.1-5.2-1.4-6.8-3.4-.3.5-.4 1-.4 1.7 0 1.1.6 2.1 1.5 2.7-.5 0-1-.2-1.5-.4 0 1.6 1.1 2.9 2.6 3.2-.3.1-.6.1-.9.1-.2 0-.4 0-.6-.1.4 1.3 1.6 2.3 3.1 2.3-1.1.9-2.5 1.4-4.1 1.4H8c1.5.9 3.2 1.5 5 1.5 6 0 9.3-5 9.3-9.3v-.4c.7-.5 1.3-1.1 1.7-1.8z" />
    </symbol>
</svg>
